<?xml version="1.0" encoding="utf-8"?>
<!-- Generator: Adobe Illustrator 23.1.1, SVG Export Plug-In . SVG Version: 6.00 Build 0)  -->
<svg version="1.1" id="Laag_1" xmlns="http://www.w3.org/2000/svg" xmlns:xlink="http://www.w3.org/1999/xlink" x="0px" y="0px"
	 viewBox="0 0 500 250" style="enable-background:new 0 0 500 250;" xml:space="preserve">
<title>Path</title>
<g id="Page-1">
	<g id="Landing-desktop" transform="translate(-54.000000, -250.000000)">
		<g id="Segment-1" transform="translate(54.000000, 151.000000)">
			<g id="Logo-mask" transform="translate(0.000000, 73.217755)">
				<path id="Path" d="M411.5,94.8l88.5,181H385.2c-31.3,0-59.7-17.9-73.7-45.7l-46.9-95.8c-9.2-16.3-14.9-25.5-16.3-23.3
					c-1.9,3-3.8,6-5.6,9c-3.3,5.7-6.2,11.8-6.2,11.8l-47.7,98.3c-14,27.7-42.8,45.7-74.1,45.7H0l88.9-181c9.9-20.4,25.1-38.3,44-51
					c28.8-20,65.8-23.2,97.9-8.6c7.5,3.8,15.2,9.8,21.3,15.3c3-2.8,6-5.4,9.2-7.9c29.2-20.8,67.9-22.4,98.8-4.1
					C382.3,52,400,71.5,411.5,94.8L411.5,94.8z"/>
			</g>
		</g>
	</g>
</g>
</svg>
