<?xml version="1.0" encoding="UTF-8"?>
<svg width="270px" height="250px" viewBox="0 0 270 250" version="1.1" xmlns="http://www.w3.org/2000/svg" xmlns:xlink="http://www.w3.org/1999/xlink">
    <title>Path</title>
    <g id="Page-2" stroke="none" stroke-width="1" fill="none" fill-rule="evenodd">
        <path d="M128.353846,13.050571 C150.784615,26.5089723 168.646154,46.0848287 180.276923,69.3311582 L270,250 L154.107692,250 C122.538462,250 93.4615385,232.055465 79.3384615,204.323002 L21.1846154,86.4600326 L0,44.4535073 L7.06153846,35.8890701 C20.3538462,20.3915171 38.2153846,8.97226754 58.1538462,3.26264274 C81.8307692,-3.26264274 107.584615,0 128.353846,13.050571 Z M67.7076923,36.2969005 C58.5692308,39.1517129 49.8461538,43.6378467 42.3692308,49.7553018 L53.1692308,70.9624796 L111.323077,189.233279 C119.630769,205.546493 136.246154,215.334421 154.523077,215.334421 L214.338462,215.334421 L149.123077,84.0130506 C140.4,66.4763458 127.107692,51.7944535 110.076923,41.5986949 C97.6153846,34.2577488 81.8307692,32.2185971 67.7076923,36.2969005 Z" id="Shape" fill="#868686" fill-rule="nonzero"></path>
    </g>
</svg>