<?xml version="1.0" encoding="utf-8"?>
<svg width="36px" height="36px" viewBox="0 0 36 36" version="1.1" xmlns:xlink="http://www.w3.org/1999/xlink" xmlns="http://www.w3.org/2000/svg">
  <g id="001-mail">
    <path d="M18 36C27.9411 36 36 27.9411 36 18C36 8.05887 27.9411 0 18 0C8.05887 0 0 8.05887 0 18C0 27.9411 8.05887 36 18 36Z" id="Oval" fill="#858786" fill-rule="evenodd" stroke="none" />
    <path d="M27 14.3702C27 13.0617 25.9455 12 24.6459 12L11.3536 12C10.0545 12 9 13.0617 9 14.3702L9 22.6303C9 23.9402 10.0545 25 11.3536 25L24.6459 25C25.9455 25 27 23.9402 27 22.6303L27 14.3702ZM25.104 15.3279L20.0376 20.6668C19.4102 21.3235 18.5222 21.75 17.5984 21.75L17.5813 21.75C16.6512 21.75 15.7597 21.3102 15.1358 20.6425L10.0718 15.2182C9.70985 14.8326 9.73875 14.2238 10.1365 13.8733C10.5347 13.5228 11.1489 13.5452 11.5103 13.9289L16.5728 19.3271C16.8329 19.6035 17.2041 19.7616 17.5906 19.7649C17.979 19.7763 18.3503 19.6092 18.6143 19.3347L23.6787 14.0457C24.0441 13.6658 24.6583 13.6416 25.0525 13.9958C25.4463 14.3501 25.4694 14.9475 25.104 15.3279Z" id="closed-mail-envelope" fill="#FFFFFF" fill-rule="evenodd" stroke="none" />
  </g>
</svg>