<?xml version="1.0" encoding="utf-8"?>
<svg width="36px" height="36px" viewBox="0 0 36 36" version="1.1" xmlns:xlink="http://www.w3.org/1999/xlink" xmlns="http://www.w3.org/2000/svg">
  <g id="menu">
    <path d="M18 36C27.9411 36 36 27.9411 36 18C36 8.05887 27.9411 0 18 0C8.05887 0 0 8.05887 0 18C0 27.9411 8.05887 36 18 36Z" id="Oval" fill="#858786" fill-rule="evenodd" stroke="none" />
    <path d="M25 12.3143C25 12.0795 24.1798 11.8889 23.169 11.8889L12.8306 11.8889C11.8202 11.8889 11 12.0795 11 12.3143L11 13.7969C11 14.032 11.8202 14.2222 12.8306 14.2222L23.169 14.2222C24.1798 14.2222 25 14.032 25 13.7969L25 12.3143ZM25 17.7588C25 17.5239 24.1798 17.3333 23.169 17.3333L12.8306 17.3333C11.8202 17.3333 11 17.5239 11 17.7588L11 19.2413C11 19.4765 11.8202 19.6667 12.8306 19.6667L23.169 19.6667C24.1798 19.6667 25 19.4765 25 19.2413L25 17.7588ZM25 23.2032C25 22.9683 24.1798 22.7778 23.169 22.7778L12.8306 22.7778C11.8202 22.7778 11 22.9683 11 23.2032L11 24.6858C11 24.9209 11.8202 25.1111 12.8306 25.1111L23.169 25.1111C24.1798 25.1111 25 24.9209 25 24.6858L25 23.2032Z" id="closed-mail-envelope" fill="#FFFFFF" fill-rule="evenodd" stroke="none" />
  </g>
</svg>